<?xml version="1.0" encoding="utf-8"?>
<svg viewBox="325.5058 256.521 155.027 294.549" width="155.027" height="294.549" xmlns="http://www.w3.org/2000/svg">
  <g id="Objects" transform="matrix(0.9999999999999999, 0, 0, 0.9999999999999999, -1.4492770433426045, -17.043025970458984)">
    <g id="XMLID_76_">
      <g id="XMLID_73_" transform="matrix(1, 0, 0, 1, -31.88406, 210.144928)">
        <g id="XMLID_372_" transform="matrix(1, 0, 0, 1, 37.68116, 0.920091)">
          <path id="XMLID_422_" style="fill:#1A75B8;stroke:#333333;stroke-miterlimit:10;" d="M462.13,89.557 c-0.929-8.976-8.357-15.166-8.357-15.166s-6.19-4.024-17.333-7.738c-9.396-3.132-31.03-3.969-37.583-4.154 c-6.553,0.185-28.56,1.023-37.956,4.154c-11.142,3.714-17.333,7.738-17.333,7.738s-7.428,6.19-8.357,15.166 c-0.107,1.037-0.219,2.249-0.332,3.587c2.777-3.146,6.67-5.077,10.915-5.784c17.91-2.855,35.561-1.913,53.063-2.317 c17.502,0.405,34.779-0.538,52.689,2.317c4.245,0.708,8.138,2.638,10.915,5.784C462.349,91.806,462.238,90.594,462.13,89.557z"/>
          <path id="XMLID_421_" style="fill:#1A75B8;stroke:#333333;stroke-miterlimit:10;" d="M341.005,230.837 c-0.159-0.742,0.001-0.099,0.001-0.099c-2.555-22.034-1.597-43.748,0.639-65.782c0.646-5.166,0.275-10.186-0.23-15.159 c-2.577-0.561-5.062-1.395-7.361-2.789c-0.052,8.178-0.463,22.367-0.698,34.785c-0.309,16.404,0.619,54.165,0.619,54.165 s0.004,0.174,0.012,0.492c0.104,0.022,0.209,0.036,0.314,0.036c1.757,0.376,3.513,0.701,5.27,0.959 c0.118-1.695,0.273-3.397,0.478-5.111C340.047,231.696,340.527,231.421,341.005,230.837z"/>
          <path id="XMLID_420_" style="fill:#1A75B8;stroke:#333333;stroke-miterlimit:10;" d="M339.101,149.2 c0.579-9.981,2.465-41.826,3.181-45.768c0.797-4.385,0.662-11.569,2.913-15.961c-4.011,0.784-7.67,2.676-10.315,5.673 c-0.866,10.241-1.835,27.937-1.835,32.317c0,4.952,0.619,11.143,0.928,15.785c0.075,1.128,0.096,3.136,0.079,5.762 C335.655,147.98,337.35,148.676,339.101,149.2z"/>
          <path id="XMLID_419_" style="fill:#1A1A1A;" d="M343.241,151.864c-0.174-0.597-0.326-1.197-0.467-1.798 c-0.455-0.083-0.909-0.17-1.36-0.268c0.505,4.973,0.876,9.993,0.23,15.159c-0.098,0.967-0.193,1.934-0.286,2.9 c1.865,1.093,4.005,1.547,5.99,2.359C346.333,164.073,344.997,157.952,343.241,151.864z"/>
          <linearGradient id="XMLID_00000093865755044964435770000016742589386420856214_" gradientUnits="userSpaceOnUse" x1="357.1955" y1="201.2535" x2="340.6531" y2="201.7028">
            <stop offset="0" style="stop-color:#FFFFFF"/>
            <stop offset="1" style="stop-color:#000000"/>
          </linearGradient>
          <path id="XMLID_418_" style="fill:url(#XMLID_00000093865755044964435770000016742589386420856214_);" d="M347.348,170.215 c-1.986-0.813-4.125-1.267-5.99-2.359c-2.014,20.921-2.785,41.579-0.393,62.522c2.561,2.392,5.897,4.057,9.341,4.89 C350.511,213.592,350.911,191.766,347.348,170.215z"/>
          <path id="XMLID_417_" style="fill:#1A75B8;stroke:#333333;stroke-miterlimit:10;" d="M339.569,237.445 c-1.757-0.258-3.513-0.583-5.27-0.959c-0.105,0-0.21-0.013-0.314-0.036c0.085,3.599,0.607,25.985,0.607,31.388 c0,4.376-0.171,8.237-0.259,9.926c0.68,0.519,1.28,1.073,1.881,0.872c2.065-0.614,4.13-1.205,6.196-1.773 C340.253,263.722,338.631,250.852,339.569,237.445z"/>
          <path id="XMLID_416_" style="fill:#0066B0;stroke:#333333;stroke-miterlimit:10;" d="M358.397,238.033 c-2.705,0.024-5.41,0.037-8.116,0.043c-0.041,4.909-0.062,9.809-0.016,14.695c0,7.221,1.199,14.441,1.646,21.662 c2.665-0.63,5.331-1.217,8.001-1.752C359.597,261.121,359.038,249.577,358.397,238.033z"/>
          <linearGradient id="XMLID_00000054235228603224609790000010751642549230628515_" gradientUnits="userSpaceOnUse" x1="355.0729" y1="257.3555" x2="342.4859" y2="258.1362">
            <stop offset="0" style="stop-color:#FFFFFF"/>
            <stop offset="1" style="stop-color:#000000"/>
          </linearGradient>
          <path id="XMLID_415_" style="fill:url(#XMLID_00000054235228603224609790000010751642549230628515_);" d="M342.411,276.865 c3.165-0.87,6.332-1.682,9.501-2.431c-0.447-7.221-1.646-14.441-1.646-21.662c-0.022-2.271-0.027-4.545-0.025-6.822 c-3.882-1.518-7.616-3.635-10.798-6.349C338.811,252.235,340.369,264.428,342.411,276.865z"/>
          <path id="XMLID_414_" d="M340.965,230.378c0.014,0.12,0.026,0.24,0.04,0.36c0,0-0.001,0.099-0.16,0.364 c-0.639,0.958-0.798,0.594-0.798,1.232c-0.205,1.714-0.36,3.416-0.478,5.111c-0.05,0.72-0.09,1.438-0.126,2.156 c3.181,2.714,6.916,4.831,10.798,6.349c0.003-2.622,0.018-5.246,0.04-7.874c0.008-0.936,0.016-1.872,0.025-2.808 C346.862,234.435,343.526,232.771,340.965,230.378z"/>
          <path id="XMLID_413_" style="fill:#1A75B8;stroke:#333333;stroke-miterlimit:10;" d="M351.863,333.881 c-4.79-11.177-4.471-26.504-6.387-38.958c-1.006-6.125-2.089-12.12-3.065-18.058c-2.066,0.568-4.131,1.159-6.196,1.773 c-0.601,0.2-1.202-0.353-1.881-0.872c-0.03,0.581-0.051,0.907-0.051,0.907s-0.619,18.571-0.619,26.618 s0.619,16.714,1.857,21.976c1.238,5.262,3.746,10.408,6.19,13.619c1.21,1.589,3.674,4.442,3.674,4.442h0.603 C350.123,341.623,354.2,339.724,351.863,333.881z"/>
          <path id="XMLID_412_" style="fill:#0066B0;stroke:#333333;stroke-miterlimit:10;" d="M351.863,284.385 c-0.639,3.832-1.277,7.664-0.958,11.496c1.277,8.941,2.555,17.244,4.471,26.185c0.244,1.708,1.608,3.041,3.378,3.718 c2.626-9.156,1.204-20.094,1.412-29.265c0.067-7.958-0.036-15.902-0.252-23.838c-2.669,0.535-5.336,1.122-8.001,1.752 C352.117,277.751,352.164,281.068,351.863,284.385z"/>
          <path id="XMLID_411_" d="M351.912,274.434c-3.169,0.749-6.335,1.561-9.501,2.431c0.321,1.955,0.655,3.919,0.993,5.889 l8.666-2.737C352.089,278.156,352.027,276.295,351.912,274.434z"/>
          <linearGradient id="XMLID_00000033358026396511401010000017954975338029346691_" gradientUnits="userSpaceOnUse" x1="357.5547" y1="302.756" x2="347.6262" y2="304.5576">
            <stop offset="0" style="stop-color:#FFFFFF"/>
            <stop offset="1" style="stop-color:#000000"/>
          </linearGradient>
          <path id="XMLID_410_" style="fill:url(#XMLID_00000033358026396511401010000017954975338029346691_);" d="M350.905,295.881 c-0.319-3.832,0.319-7.664,0.958-11.496c0.132-1.456,0.195-2.912,0.209-4.368l-8.666,2.737c0.689,4.014,1.397,8.06,2.071,12.169 c1.592,10.349,1.643,22.68,4.363,32.967l3.656-15.462C352.524,306.953,351.714,301.545,350.905,295.881z"/>
          <path id="XMLID_409_" style="fill:#333333;" d="M355.375,322.066c-0.702-3.277-1.318-6.469-1.88-9.637l-3.656,15.462 c0.553,2.092,1.214,4.102,2.024,5.991c0.384,0.961,0.592,1.813,0.658,2.586c3.167-3.023,5.085-6.683,6.233-10.683 C356.984,325.107,355.619,323.774,355.375,322.066z"/>
          <path id="XMLID_408_" style="fill:#0066B0;stroke:#333333;stroke-miterlimit:10;" d="M350.282,238.076 c2.705-0.007,5.41-0.02,8.116-0.043c-1.015-18.272-2.233-36.547-3.009-54.896c-2.21,0.044-4.329,0.357-6.197,1.606 C350.826,202.478,350.429,220.333,350.282,238.076z"/>
          <path id="XMLID_407_" style="fill:#0066B0;" d="M352.821,168.788c-0.943-6.063-1.943-11.954-2.928-17.82 c-1.333-7.942-2.638-15.836-3.738-24.037c-1.772,0.773-3.522,1.479-5.469,1.302c0.883,7.361,0.415,14.721,2.088,21.832 c0.141,0.601,0.293,1.201,0.467,1.798c3.137,10.875,4.936,21.854,5.951,32.879c1.867-1.249,3.986-1.562,6.197-1.606 c-0.004-0.099-0.009-0.199-0.013-0.298C355.056,178.049,353.459,173.578,352.821,168.788z"/>
          <path id="XMLID_406_" d="M359.826,67.018c-9.487,3.271-15.133,6.67-16.105,7.277c0.24,1.396,0.321,2.818,0.233,4.231 C349.375,74.873,354.668,71.032,359.826,67.018z"/>
          <path id="XMLID_405_" style="fill:#333333;" d="M334.443,213.195c-2.349,2.446-2.562,6.179-2.641,9.569 c-0.015,0.66-0.025,1.348,0.259,1.943c0.183,0.384,0.478,0.705,0.682,1.079c0.556,1.023,0.359,2.269,0.462,3.429 c0.045,0.507,0.164,1.036,0.507,1.412c0.343,0.376,0.966,0.534,1.373,0.229c0.004-2.195,0.008-4.39,0.012-6.585 c-0.822,0.132-1.608-0.512-1.925-1.281c-0.317-0.77-0.275-1.633-0.228-2.464c0.106-1.869,0.408-4.064,2.057-4.95 c0.166-0.089,0.356-0.175,0.433-0.348c0.079-0.178,0.01-0.383-0.061-0.564c-0.154-0.395-0.313-0.788-0.477-1.179 c-0.053-0.126-0.15-0.276-0.283-0.246c-0.133,0.029,0.018,0.29,0.064,0.161"/>
          <path id="XMLID_404_" style="fill:#333333;" d="M341.842,154.018c-0.611-0.572-1.26-0.962-1.755-1.259 c-0.572-0.343-0.992-0.572-0.992-0.572c0.164,2.136-1.063,4.475-2.871,5.624c-2.133,1.356-4.564,2.15-6.902,3.109 c-2.338,0.959-4.672,2.146-6.308,4.072c-1.452,1.709-2.24,4.122-1.669,6.251l15.755-4.627c0.176-0.391,0.272-0.922,0.233-1.658 c0.398-0.15,0.968-0.414,1.366-0.564c0.959,1.524,1.158,1.645,2.723,2.599C342.261,161.84,342.185,158.596,341.842,154.018z"/>
          <path id="XMLID_403_" d="M321.627,172.038c4.28-1.314,6.903-2.095,11.183-3.409c0.796-0.244,2.137-0.641,2.927-0.905 c0.508-0.169,1.057-0.426,1.363-1.109l-15.755,4.627C321.417,171.512,321.509,171.779,321.627,172.038z"/>
          <path id="XMLID_402_" style="fill:#1A75B8;stroke:#333333;stroke-miterlimit:10;" d="M456.338,230.837 c0.159-0.742-0.001-0.099-0.001-0.099c2.555-22.034,1.597-43.748-0.639-65.782c-0.646-5.166-0.275-10.186,0.23-15.159 c2.577-0.561,5.062-1.395,7.361-2.789c0.052,8.178,0.463,22.367,0.698,34.785c0.31,16.404-0.619,54.165-0.619,54.165 s-0.004,0.174-0.012,0.492c-0.104,0.022-0.209,0.036-0.314,0.036c-1.757,0.376-3.513,0.701-5.27,0.959 c-0.118-1.695-0.273-3.397-0.478-5.111C457.295,231.696,456.815,231.421,456.338,230.837z"/>
          <path id="XMLID_400_" style="fill:#1A75B8;stroke:#333333;stroke-miterlimit:10;" d="M458.241,149.2 c-0.579-9.981-2.465-41.826-3.181-45.768c-0.797-4.385-0.662-11.569-2.913-15.961c4.011,0.784,7.67,2.676,10.315,5.673 c0.866,10.241,1.835,27.937,1.835,32.317c0,4.952-0.619,11.143-0.928,15.785c-0.075,1.128-0.096,3.136-0.079,5.762 C461.687,147.98,459.992,148.676,458.241,149.2z"/>
          <path id="XMLID_399_" d="M456.018,114.503c-1.277-14.05-1.998-22.134-7.664-29.059c-2.874-3.513-8.575-6.71-21.076-12.454 c-9.187-4.221-22.812-4.774-28.42-4.811c-5.608,0.037-19.607,0.59-28.794,4.811c-12.501,5.744-18.202,8.941-21.076,12.454 c-5.666,6.924-6.387,15.008-7.664,29.059s-0.639,38.639-0.639,38.639l3.513,2.555l-1.916-15.966l-0.319-11.176 c0,0,5.109-31.933,9.899-37.681c4.79-5.748,14.689-14.37,19.479-15.647c3.792-1.011,20.764-2.423,27.516-2.967 c6.752,0.544,23.351,1.955,27.143,2.967c4.79,1.277,14.689,9.899,19.479,15.647c4.79,5.748,9.899,37.681,9.899,37.681 l-0.319,11.176l-1.916,15.966l3.513-2.555C456.656,153.141,457.295,128.553,456.018,114.503z"/>
          <path id="XMLID_398_" style="fill:#1A1A1A;" d="M454.102,151.864c0.174-0.597,0.326-1.197,0.467-1.798 c0.455-0.083,0.909-0.17,1.36-0.268c-0.505,4.973-0.876,9.993-0.23,15.159c0.098,0.967,0.193,1.934,0.286,2.9 c-1.865,1.093-4.005,1.547-5.99,2.359C451.009,164.073,452.346,157.952,454.102,151.864z"/>
          <linearGradient id="XMLID_00000036210883602398416210000001801175546537533313_" gradientUnits="userSpaceOnUse" x1="8115.6982" y1="201.2535" x2="8099.1558" y2="201.7028" gradientTransform="matrix(-1 0 0 1 8555.8447 0)">
            <stop offset="0" style="stop-color:#FFFFFF"/>
            <stop offset="1" style="stop-color:#000000"/>
          </linearGradient>
          <path id="XMLID_397_" style="fill:url(#XMLID_00000036210883602398416210000001801175546537533313_);" d="M449.994,170.215 c1.986-0.813,4.125-1.267,5.99-2.359c2.014,20.921,2.785,41.579,0.393,62.522c-2.561,2.392-5.897,4.057-9.341,4.89 C446.831,213.592,446.431,191.766,449.994,170.215z"/>
          <path id="XMLID_396_" style="fill:#1A75B8;stroke:#333333;stroke-miterlimit:10;" d="M457.773,237.445 c1.757-0.258,3.513-0.583,5.27-0.959c0.105,0,0.21-0.013,0.314-0.036c-0.085,3.599-0.607,25.985-0.607,31.388 c0,4.376,0.171,8.237,0.259,9.926c-0.68,0.519-1.28,1.073-1.881,0.872c-2.065-0.614-4.13-1.205-6.196-1.773 C457.09,263.722,458.711,250.852,457.773,237.445z"/>
          <path id="XMLID_395_" style="fill:#0066B0;stroke:#333333;stroke-miterlimit:10;" d="M438.945,238.033 c2.705,0.024,5.41,0.037,8.116,0.043c0.041,4.909,0.062,9.809,0.016,14.695c0,7.221-1.199,14.441-1.646,21.662 c-2.665-0.63-5.331-1.217-8.001-1.752C437.745,261.121,438.304,249.577,438.945,238.033z"/>
          <linearGradient id="XMLID_00000016773575510181675830000015658210851531041164_" gradientUnits="userSpaceOnUse" x1="8113.5757" y1="257.3555" x2="8100.9883" y2="258.1362" gradientTransform="matrix(-1 0 0 1 8555.8447 0)">
            <stop offset="0" style="stop-color:#FFFFFF"/>
            <stop offset="1" style="stop-color:#000000"/>
          </linearGradient>
          <path id="XMLID_394_" style="fill:url(#XMLID_00000016773575510181675830000015658210851531041164_);" d="M454.931,276.865 c-3.165-0.87-6.332-1.682-9.501-2.431c0.447-7.221,1.646-14.441,1.646-21.662c0.022-2.271,0.027-4.545,0.025-6.822 c3.882-1.518,7.616-3.635,10.798-6.349C458.532,252.235,456.974,264.428,454.931,276.865z"/>
          <path id="XMLID_393_" d="M456.377,230.378c-0.014,0.12-0.026,0.24-0.04,0.36c0,0,0.001,0.099,0.16,0.364 c0.639,0.958,0.798,0.594,0.798,1.232c0.205,1.714,0.36,3.416,0.478,5.111c0.05,0.72,0.09,1.438,0.126,2.156 c-3.181,2.714-6.916,4.831-10.798,6.349c-0.003-2.622-0.018-5.246-0.04-7.874c-0.008-0.936-0.016-1.872-0.025-2.808 C450.48,234.435,453.816,232.771,456.377,230.378z"/>
          <path id="XMLID_392_" style="fill:#1A75B8;stroke:#333333;stroke-miterlimit:10;" d="M445.48,333.881 c4.79-11.177,4.471-26.504,6.387-38.958c1.006-6.125,2.089-12.12,3.065-18.058c2.066,0.568,4.131,1.159,6.196,1.773 c0.601,0.2,1.202-0.353,1.881-0.872c0.03,0.581,0.051,0.907,0.051,0.907s0.619,18.571,0.619,26.618s-0.619,16.714-1.857,21.976 c-1.238,5.262-3.746,10.408-6.19,13.619c-1.21,1.589-3.674,4.442-3.674,4.442h-0.603 C447.22,341.623,443.143,339.724,445.48,333.881z"/>
          <path id="XMLID_391_" style="fill:#0066B0;stroke:#333333;stroke-miterlimit:10;" d="M445.48,284.385 c0.639,3.832,1.277,7.664,0.958,11.496c-1.277,8.941-2.555,17.244-4.471,26.185c-0.244,1.708-1.608,3.041-3.378,3.718 c-2.626-9.156-1.204-20.094-1.412-29.265c-0.067-7.958,0.036-15.902,0.252-23.838c2.669,0.535,5.336,1.122,8.001,1.752 C445.225,277.751,445.178,281.068,445.48,284.385z"/>
          <path id="XMLID_390_" d="M445.43,274.434c3.169,0.749,6.335,1.561,9.501,2.431c-0.321,1.955-0.655,3.919-0.993,5.889 l-8.666-2.737C445.253,278.156,445.315,276.295,445.43,274.434z"/>
          <linearGradient id="XMLID_00000063598188906029038380000002606101421318116240_" gradientUnits="userSpaceOnUse" x1="8116.0571" y1="302.756" x2="8106.1289" y2="304.5576" gradientTransform="matrix(-1 0 0 1 8555.8447 0)">
            <stop offset="0" style="stop-color:#FFFFFF"/>
            <stop offset="1" style="stop-color:#000000"/>
          </linearGradient>
          <path id="XMLID_389_" style="fill:url(#XMLID_00000063598188906029038380000002606101421318116240_);" d="M446.438,295.881 c0.319-3.832-0.319-7.664-0.958-11.496c-0.132-1.456-0.195-2.912-0.209-4.368l8.666,2.737c-0.689,4.014-1.397,8.06-2.071,12.169 c-1.592,10.349-1.643,22.68-4.363,32.967l-3.656-15.462C444.818,306.953,445.629,301.545,446.438,295.881z"/>
          <path id="XMLID_388_" style="fill:#333333;" d="M441.967,322.066c0.702-3.277,1.318-6.469,1.88-9.637l3.656,15.462 c-0.553,2.092-1.214,4.102-2.024,5.991c-0.384,0.961-0.592,1.813-0.658,2.586c-3.167-3.023-5.085-6.683-6.233-10.683 C440.359,325.107,441.723,323.774,441.967,322.066z"/>
          <linearGradient id="XMLID_00000124152294539264107460000007637596722451304341_" gradientUnits="userSpaceOnUse" x1="315.4408" y1="338.9485" x2="495.4387" y2="338.9485">
            <stop offset="0" style="stop-color:#FFFFFF"/>
            <stop offset="1" style="stop-color:#000000"/>
          </linearGradient>
          <path id="XMLID_386_" style="fill:url(#XMLID_00000124152294539264107460000007637596722451304341_);" d="M438.588,325.773 c-1.547,2.29-4.508,3.439-6.839,3.957c-10.964,2.99-21.927,4.23-32.891,3.569c-10.964,0.661-22.301-0.578-33.264-3.569 c-2.331-0.518-5.292-1.667-6.839-3.957c-1.133,3.955-3.02,7.578-6.121,10.583c8.744,16.131,28.88,15.645,46.224,15.768 c17.344-0.123,37.106,0.363,45.851-15.768C441.608,333.352,439.721,329.728,438.588,325.773z"/>
          <path id="XMLID_385_" style="fill:#4D94C8;stroke:#333333;stroke-miterlimit:10;" d="M398.858,181.384 c-14.367-0.192-29.108,0.688-43.475,1.627c0.776,18.391,1.997,36.707,3.014,55.021c0.641,11.544,1.2,23.088,1.516,34.648 c0.217,7.936,0.319,15.88,0.252,23.838c-0.088,3.886,0.116,8.09,0.18,12.341c11.759,5.225,25.693,4.586,38.512,4.902 c12.82-0.317,26.38,0.322,38.139-4.902c0.065-4.251,0.269-8.455,0.18-12.341c-0.067-7.958,0.036-15.902,0.252-23.838 c0.315-11.561,0.874-23.104,1.516-34.648c1.018-18.314,2.239-36.63,3.014-55.021 C427.592,182.072,413.225,181.192,398.858,181.384z"/>
          <path id="XMLID_384_" style="fill:#0066B0;stroke:#333333;stroke-miterlimit:10;" d="M436.997,308.861 c-11.759,5.225-25.319,4.426-38.139,4.743c-12.82-0.317-26.753,0.482-38.512-4.743c0.065,4.264-0.01,8.576-0.662,12.663 c1.441,2.379,3.177,4.579,5.591,5.652c10.685,4.007,22.191,3.768,33.584,4.144c11.392-0.376,22.525-0.137,33.21-4.144 c2.414-1.073,4.15-3.272,5.591-5.652C437.007,317.437,436.932,313.125,436.997,308.861z"/>
          <path id="XMLID_383_" d="M437.659,321.523c-1.441,2.379-3.177,4.579-5.591,5.652c-10.685,4.007-21.818,3.768-33.21,4.144 c-11.392-0.376-22.898-0.137-33.584-4.144c-2.414-1.073-4.15-3.272-5.591-5.652c-0.231,1.449-0.533,2.87-0.928,4.25 c1.547,2.29,4.508,3.439,6.839,3.957c10.964,2.99,22.281,4.043,33.264,4.043s21.927-1.053,32.891-4.043 c2.331-0.518,5.292-1.667,6.839-3.957C438.192,324.393,437.89,322.972,437.659,321.523z"/>
          <path id="XMLID_382_" style="fill:#1A75B8;stroke:#333333;stroke-miterlimit:10;" d="M444.822,336.468 c-0.039-0.037-0.075-0.075-0.113-0.112c-8.744,16.131-28.507,15.645-45.851,15.768c-17.344-0.123-37.48,0.363-46.224-15.768 c-0.038,0.037-0.075,0.075-0.113,0.112c0.334,3.928-3.077,5.764-6.532,8.86h0.694l3.631,5.317c0,0,4.539,2.205,9.597,2.983 c5.058,0.778,17.378,2.723,23.344,2.983c3.912,0.17,11.262,0.34,15.603,0.437c4.341-0.097,11.318-0.267,15.23-0.437 c5.966-0.259,18.286-2.205,23.344-2.983c5.058-0.778,9.597-2.983,9.597-2.983l3.631-5.317h0.694 C447.899,342.232,444.488,340.395,444.822,336.468z"/>
          <path id="XMLID_381_" style="fill:#0066B0;stroke:#333333;stroke-miterlimit:10;" d="M447.061,238.076 c-2.705-0.007-5.41-0.02-8.116-0.043c1.015-18.272,2.233-36.547,3.009-54.896c2.21,0.044,4.329,0.357,6.197,1.606 C446.517,202.478,446.914,220.333,447.061,238.076z"/>
          <path id="XMLID_380_" style="fill:#0066B0;" d="M444.522,168.788c0.943-6.063,1.943-11.954,2.928-17.82 c1.333-7.942,2.638-15.836,3.738-24.037c1.772,0.773,3.522,1.479,5.469,1.302c-0.883,7.361-0.415,14.721-2.088,21.832 c-0.141,0.601-0.293,1.201-0.467,1.798c-3.137,10.875-4.936,21.854-5.951,32.879c-1.867-1.249-3.986-1.562-6.197-1.606 c0.004-0.099,0.009-0.199,0.013-0.298C442.287,178.049,443.883,173.578,444.522,168.788z"/>
          <path id="XMLID_379_" style="fill:#595959;" d="M448.673,117.696c-0.958-1.916-4.471-5.109-7.664-6.387 c-3.193-1.277-17.882-6.706-31.294-7.345c-5.039-0.24-8.499-0.345-10.857-0.382c-2.358,0.037-6.192,0.142-11.231,0.382 c-13.412,0.639-28.101,6.067-31.294,7.345c-3.193,1.277-6.706,4.471-7.664,6.387s-3.193,9.261-3.193,9.261l8.941,56.202 c0,0,11.496-0.958,25.866-1.277c8.03-0.178,14.637-0.157,18.575-0.104c3.939-0.053,10.172-0.074,18.202,0.104 c14.37,0.319,25.866,1.277,25.866,1.277l8.941-56.202C451.866,126.956,449.631,119.612,448.673,117.696z"/>
          <linearGradient id="XMLID_00000091694058462287142570000001481278905758191235_" gradientUnits="userSpaceOnUse" x1="347.958" y1="146.5999" x2="449.3844" y2="146.5999">
            <stop offset="0" style="stop-color:#FFFFFF"/>
            <stop offset="1" style="stop-color:#000000"/>
          </linearGradient>
          <path id="XMLID_378_" style="fill:url(#XMLID_00000091694058462287142570000001481278905758191235_);" d="M445.48,125.04 c-3.513-3.193-15.008-7.664-25.227-9.58c-7.246-1.359-16.578-1.433-21.395-1.361c-4.817-0.072-14.522,0.002-21.768,1.361 c-10.218,1.916-21.714,6.387-25.227,9.58c-3.513,3.193-4.151,5.109-3.832,8.941c0.319,3.832,7.345,40.235,7.664,41.832 c0.319,1.597,0,3.832,5.429,3.193s16.605-1.597,21.714-1.597s10.219,0.319,10.219,0.319s1.597-0.319,1.597-1.916 c0-1.309,0.429-7.34,0.584-9.47c0.031-0.423,0.382-0.748,0.806-0.748h2.815h2.442c0.424,0,0.776,0.325,0.806,0.748 c0.155,2.131,0.584,8.161,0.584,9.47c0,1.597,1.597,1.916,1.597,1.916s5.109-0.319,10.219-0.319s16.286,0.958,21.714,1.597 c5.429,0.639,5.109-1.597,5.429-3.193c0.319-1.597,7.345-38,7.664-41.832C449.631,130.15,448.992,128.234,445.48,125.04z"/>
          <path id="XMLID_377_" d="M437.516,67.018c9.487,3.271,15.133,6.67,16.105,7.277c-0.24,1.396-0.321,2.818-0.233,4.231 C447.968,74.873,442.675,71.032,437.516,67.018z"/>
          <path id="XMLID_376_" style="fill:#333333;" d="M462.9,213.195c2.349,2.446,2.562,6.179,2.641,9.569 c0.015,0.66,0.025,1.348-0.259,1.943c-0.183,0.384-0.478,0.705-0.682,1.079c-0.556,1.023-0.359,2.269-0.462,3.429 c-0.045,0.507-0.164,1.036-0.507,1.412c-0.343,0.376-0.966,0.534-1.373,0.229c-0.004-2.195-0.008-4.39-0.012-6.585 c0.822,0.132,1.608-0.512,1.925-1.281c0.317-0.77,0.275-1.633,0.228-2.464c-0.106-1.869-0.408-4.064-2.057-4.95 c-0.166-0.089-0.356-0.175-0.433-0.348c-0.079-0.178-0.01-0.383,0.061-0.564c0.154-0.395,0.313-0.788,0.477-1.179 c0.053-0.126,0.15-0.276,0.283-0.246s-0.018,0.29-0.064,0.161"/>
          <path id="XMLID_375_" style="fill:#333333;" d="M455.501,154.018c0.611-0.572,1.26-0.962,1.755-1.259 c0.572-0.343,0.992-0.572,0.992-0.572c-0.164,2.136,1.063,4.475,2.871,5.624c2.133,1.356,4.564,2.15,6.902,3.109 c2.338,0.959,4.672,2.146,6.308,4.072c1.452,1.709,2.24,4.122,1.669,6.251l-15.755-4.627c-0.176-0.391-0.272-0.922-0.233-1.658 c-0.398-0.15-0.968-0.414-1.366-0.564c-0.959,1.524-1.158,1.645-2.723,2.599C455.081,161.84,455.157,158.596,455.501,154.018z"/>
          <path id="XMLID_374_" d="M475.716,172.038c-4.28-1.314-6.903-2.095-11.183-3.409c-0.796-0.244-2.137-0.641-2.927-0.905 c-0.508-0.169-1.057-0.426-1.363-1.109l15.755,4.627C475.925,171.512,475.834,171.779,475.716,172.038z"/>
          <path id="XMLID_401_" style="fill:#0066B0;" d="M455.06,103.433c-0.852-4.683-0.639-12.56-3.406-16.818 c-2.768-4.258-8.941-10.218-15.966-13.199c-7.025-2.98-15.754-4.258-21.289-4.683c-3.598-0.277-10.881-0.643-15.541-0.866 c-4.659,0.223-12.316,0.589-15.914,0.866c-5.535,0.426-14.263,1.703-21.289,4.683c-7.025,2.98-13.199,8.941-15.966,13.199 c-2.767,4.258-2.555,12.134-3.406,16.818c-0.852,4.684-3.353,48.751-3.353,48.751l5.269,3.513l4.106,0.008 c-5.609-14.639-9.729-32.899,3.238-43.756c12.988-11.133,30.531-12.804,47.315-13.599c16.784,0.795,33.953,2.466,46.941,13.599 c12.967,10.856,8.847,29.117,3.238,43.756l4.106-0.008l5.269-3.513C458.413,152.183,455.911,108.116,455.06,103.433z"/>
          <path id="XMLID_387_" style="fill:#3384C0;" d="M454.372,128.553c0,0-4.707-30.396-6.657-35.765 C444.01,82.59,427.278,72.99,427.278,72.99s-0.319,0.958-4.151,0.639s-18.202-2.235-18.202-2.235s-2.555-0.319-3.193-1.277 c-0.639-0.958-1.06-1.436-1.06-1.436h-1.814h-2.187c0,0-0.421,0.478-1.06,1.436c-0.639,0.958-3.193,1.277-3.193,1.277 s-14.37,1.916-18.202,2.235s-4.151-0.639-4.151-0.639s-16.732,9.6-20.437,19.798c-1.95,5.369-6.657,35.765-6.657,35.765 l2.616-0.906l-0.11-0.691c0,0,2.235-7.345,3.193-9.261s4.471-5.109,7.664-6.387c3.193-1.277,17.882-6.706,31.294-7.345 c5.039-0.24,8.873-0.345,11.231-0.382c2.358,0.037,5.819,0.142,10.857,0.382c13.412,0.639,28.101,6.067,31.294,7.345 c3.193,1.277,6.706,4.471,7.664,6.387s3.193,9.261,3.193,9.261l-0.11,0.691L454.372,128.553z"/>
          <circle id="XMLID_373_" style="fill:#0066B0;" cx="398.427" cy="75.269" r="3.075"/>
        </g>
      </g>
      <g id="XMLID_2_"/>
      <g id="XMLID_5_"/>
      <g id="XMLID_6_"/>
      <g id="XMLID_74_"/>
    </g>
  </g>
</svg>